<?xml version="1.0" encoding="utf-8"?>

<svg xmlns:dc="http://purl.org/dc/elements/1.1/" version="1.1" id="Layer_1" xmlns="http://www.w3.org/2000/svg" xmlns:xlink="http://www.w3.org/1999/xlink" x="0px" y="0px"
	 viewBox="0 0 24 24" style="enable-background:new 0 0 24 24;" xml:space="preserve">
<metadata>
    <dc:creator>Davooda</dc:creator>
    <dc:relation>https://davooda.com</dc:relation>
</metadata>

<style type="text/css">
	.st0{fill:none;stroke:#1E1E1E;stroke-width:2;stroke-linecap:round;stroke-linejoin:round;stroke-miterlimit:10;}
	.st1{fill:none;stroke:#1E1E1E;stroke-width:1.7;stroke-linecap:round;stroke-linejoin:round;stroke-miterlimit:10;}
	.st2{fill:none;stroke:#1E1E1E;stroke-width:1.8;stroke-linecap:round;stroke-linejoin:round;stroke-miterlimit:10;}
	.st3{fill:#1E1E1E;}
	.st4{fill:#FFFFFF;stroke:#1E1E1E;stroke-width:2;stroke-linecap:round;stroke-linejoin:round;stroke-miterlimit:10;}
	.st5{fill:none;stroke:#1E1E1E;stroke-width:1.6;stroke-linecap:round;stroke-linejoin:round;stroke-miterlimit:10;}
	.st6{fill:none;stroke:#010101;stroke-width:2;stroke-linecap:round;stroke-linejoin:round;stroke-miterlimit:10;}
	.st7{fill:#010101;}
	.st8{fill:none;stroke:#010101;stroke-width:1.8;stroke-linecap:round;stroke-linejoin:round;stroke-miterlimit:10;}
</style>
<polyline class="st2" points="19,19 13.2,15 8,18.4 1,20 "/>
<path class="st0" d="M7.3,9H3c-1.1,0-2,0.9-2,2v10c0,1.1,0.9,2,2,2h14c1.1,0,2-0.9,2-2v-5"/>
<path class="st2" d="M17.1,12c-0.4-2.7-1.5-5.1-5.5-5.5c4-0.4,5.1-2.8,5.5-5.5c0.4,2.7,1.5,5.1,5.5,5.5C18.5,6.9,17.4,9.3,17.1,12z"
	/>
<path class="st2" d="M7,5C6.9,4,6.5,3.1,5,3c1.5-0.1,1.9-1,2-2c0.1,1,0.5,1.9,2,2C7.5,3.1,7.1,4,7,5z"/>
<circle class="st3" cx="6.2" cy="14" r="1.5"/>
</svg>
